<?xml version="1.0" ?><svg viewBox="0 0 64 64" xmlns="http://www.w3.org/2000/svg"><title/><g data-name="Layer 3" id="Layer_3"><path d="M58.88,39C59.76,25.24,56.06,11.12,49,9.24c-5.7-1.53-9.37,2.48-10.57,4.08A15.8,15.8,0,0,0,16.19,27.75V31.5h0a1.69,1.69,0,0,0-1.69,1.69V39a4.51,4.51,0,0,0,3.88,4.44,8.82,8.82,0,0,0,.41.88c1,5.4,2.56,6.27,2.56,6.27a11.4,11.4,0,0,1-1.22-4.31A10.38,10.38,0,0,0,23.66,49,30.56,30.56,0,0,0,27,50.27c.49.16,1,.3,1.52.42v2a1.14,1.14,0,0,1-1.06,1.13l-7,.47a4.27,4.27,0,0,0-4,4.25v4h31v-4a4.27,4.27,0,0,0-4-4.25l-7-.47a1.14,1.14,0,0,1-1.06-1.13v-2c.53-.12,1-.26,1.52-.42A30.56,30.56,0,0,0,40.34,49a10.47,10.47,0,0,0,3.14-2.24,10.44,10.44,0,0,1-1.17,3.86s1.39-.78,2.39-5.41a10.29,10.29,0,0,0,.92-1.74A4.51,4.51,0,0,0,49.5,39v-5.8a1.69,1.69,0,0,0-1.69-1.69V27.75A15.73,15.73,0,0,0,43.56,17a2.94,2.94,0,0,1,2.73.23,5.88,5.88,0,0,1,2.91,5.33C49,32.78,52.35,46,52.35,46a17.25,17.25,0,0,1,.71-5.94C54.12,52.76,60.65,58,60.65,58S58,52.76,58.88,39ZM15.5,39v-5.8a.69.69,0,0,1,.69-.69H18a70.84,70.84,0,0,0,.52,9.93A3.51,3.51,0,0,1,15.5,39Zm21,15.81,1.42.09c-.3.83-1.53,3.26-5.92,3.33s-5.64-2.48-5.92-3.32l1.42-.1a2.15,2.15,0,0,0,2-2.13V50.89l.63.07.45,0a15.08,15.08,0,0,0,2.85,0l.43,0,.64-.07v1.78A2.15,2.15,0,0,0,36.5,54.8Zm3.42-6.74a30.78,30.78,0,0,1-3.22,1.26,15.23,15.23,0,0,1-1.8.48,14.9,14.9,0,0,1-5.8,0,16.82,16.82,0,0,1-1.8-.47,33.18,33.18,0,0,1-3.22-1.27,9.49,9.49,0,0,1-4.17-3.81c-.53-6.41.12-14.91.87-15.22l.57,3h2.83l1.23-6.94L27.79,32h5.45l-.59-4.53L35.47,32h6.12l-.41-4.94c2,2.12,3.06,11.33,2.51,17.8A9.43,9.43,0,0,1,39.92,48.06ZM48.5,33.19V39a3.51,3.51,0,0,1-3.27,3.48h-.07a71.34,71.34,0,0,0,.52-10h2.13A.69.69,0,0,1,48.5,33.19Z"/><path d="M26,35a1,1,0,0,0-1,1v3a1,1,0,0,0,2,0V36A1,1,0,0,0,26,35Z"/><path d="M38,35a1,1,0,0,0-1,1v3a1,1,0,0,0,2,0V36A1,1,0,0,0,38,35Z"/></g></svg>